<mxfile host="app.diagrams.net" modified="2024-10-06T22:26:16.781Z" agent="Mozilla/5.0 (Windows NT 10.0; Win64; x64) AppleWebKit/537.36 (KHTML, like Gecko) Chrome/129.0.0.0 Safari/537.36" etag="yiHsdW-5YNXq2Z3ONki0" version="24.6.4" type="device">
  <diagram name="Page-1" id="9w2hbHwFJCCT5Dbj7O38">
    <mxGraphModel dx="1059" dy="549" grid="1" gridSize="10" guides="1" tooltips="1" connect="1" arrows="1" fold="1" page="1" pageScale="1" pageWidth="850" pageHeight="1100" math="0" shadow="0">
      <root>
        <mxCell id="0" />
        <mxCell id="1" parent="0" />
        <mxCell id="ixTr_KPI3cHfOdiQT1Z_-2" value="" style="rounded=0;whiteSpace=wrap;html=1;" vertex="1" parent="1">
          <mxGeometry x="80" y="70" width="340" height="230" as="geometry" />
        </mxCell>
        <mxCell id="ixTr_KPI3cHfOdiQT1Z_-3" value="" style="endArrow=none;dashed=1;html=1;rounded=0;exitX=0.5;exitY=1;exitDx=0;exitDy=0;entryX=0.5;entryY=0;entryDx=0;entryDy=0;" edge="1" parent="1" source="ixTr_KPI3cHfOdiQT1Z_-2" target="ixTr_KPI3cHfOdiQT1Z_-2">
          <mxGeometry width="50" height="50" relative="1" as="geometry">
            <mxPoint x="110" y="120" as="sourcePoint" />
            <mxPoint x="160" y="70" as="targetPoint" />
          </mxGeometry>
        </mxCell>
        <mxCell id="ixTr_KPI3cHfOdiQT1Z_-4" value="" style="endArrow=none;dashed=1;html=1;rounded=0;entryX=0;entryY=0.5;entryDx=0;entryDy=0;exitX=1;exitY=0.5;exitDx=0;exitDy=0;" edge="1" parent="1" source="ixTr_KPI3cHfOdiQT1Z_-2" target="ixTr_KPI3cHfOdiQT1Z_-2">
          <mxGeometry width="50" height="50" relative="1" as="geometry">
            <mxPoint x="210" y="210" as="sourcePoint" />
            <mxPoint x="260" y="160" as="targetPoint" />
          </mxGeometry>
        </mxCell>
        <mxCell id="ixTr_KPI3cHfOdiQT1Z_-5" value="" style="endArrow=none;dashed=1;html=1;rounded=0;entryX=0;entryY=0.25;entryDx=0;entryDy=0;exitX=1;exitY=0.25;exitDx=0;exitDy=0;" edge="1" parent="1" source="ixTr_KPI3cHfOdiQT1Z_-2" target="ixTr_KPI3cHfOdiQT1Z_-2">
          <mxGeometry width="50" height="50" relative="1" as="geometry">
            <mxPoint x="260" y="230" as="sourcePoint" />
            <mxPoint x="310" y="180" as="targetPoint" />
          </mxGeometry>
        </mxCell>
        <mxCell id="ixTr_KPI3cHfOdiQT1Z_-6" value="" style="endArrow=none;dashed=1;html=1;rounded=0;entryX=0;entryY=0.75;entryDx=0;entryDy=0;exitX=1;exitY=0.75;exitDx=0;exitDy=0;" edge="1" parent="1" source="ixTr_KPI3cHfOdiQT1Z_-2" target="ixTr_KPI3cHfOdiQT1Z_-2">
          <mxGeometry width="50" height="50" relative="1" as="geometry">
            <mxPoint x="430" y="138" as="sourcePoint" />
            <mxPoint x="90" y="138" as="targetPoint" />
          </mxGeometry>
        </mxCell>
        <mxCell id="ixTr_KPI3cHfOdiQT1Z_-7" value="" style="endArrow=none;dashed=1;html=1;rounded=0;entryX=0.25;entryY=0;entryDx=0;entryDy=0;exitX=0.25;exitY=1;exitDx=0;exitDy=0;" edge="1" parent="1" source="ixTr_KPI3cHfOdiQT1Z_-2" target="ixTr_KPI3cHfOdiQT1Z_-2">
          <mxGeometry width="50" height="50" relative="1" as="geometry">
            <mxPoint x="260" y="230" as="sourcePoint" />
            <mxPoint x="310" y="180" as="targetPoint" />
          </mxGeometry>
        </mxCell>
        <mxCell id="ixTr_KPI3cHfOdiQT1Z_-8" value="" style="endArrow=none;dashed=1;html=1;rounded=0;entryX=0.75;entryY=0;entryDx=0;entryDy=0;exitX=0.75;exitY=1;exitDx=0;exitDy=0;" edge="1" parent="1" source="ixTr_KPI3cHfOdiQT1Z_-2" target="ixTr_KPI3cHfOdiQT1Z_-2">
          <mxGeometry width="50" height="50" relative="1" as="geometry">
            <mxPoint x="175" y="310" as="sourcePoint" />
            <mxPoint x="175" y="80" as="targetPoint" />
          </mxGeometry>
        </mxCell>
        <mxCell id="ixTr_KPI3cHfOdiQT1Z_-9" value="(0, 0)" style="text;html=1;align=center;verticalAlign=middle;whiteSpace=wrap;rounded=0;" vertex="1" parent="1">
          <mxGeometry x="110" y="100" width="60" height="30" as="geometry" />
        </mxCell>
        <mxCell id="ixTr_KPI3cHfOdiQT1Z_-10" value="(0, &lt;i&gt;j)&lt;/i&gt;" style="text;html=1;align=center;verticalAlign=middle;whiteSpace=wrap;rounded=0;" vertex="1" parent="1">
          <mxGeometry x="370" y="100" width="60" height="30" as="geometry" />
        </mxCell>
        <mxCell id="ixTr_KPI3cHfOdiQT1Z_-11" value="(&lt;i&gt;i, j)&lt;/i&gt;" style="text;html=1;align=center;verticalAlign=middle;whiteSpace=wrap;rounded=0;" vertex="1" parent="1">
          <mxGeometry x="370" y="270" width="60" height="30" as="geometry" />
        </mxCell>
        <mxCell id="ixTr_KPI3cHfOdiQT1Z_-12" value="(&lt;i&gt;i, &lt;/i&gt;0)" style="text;html=1;align=center;verticalAlign=middle;whiteSpace=wrap;rounded=0;" vertex="1" parent="1">
          <mxGeometry x="110" y="270" width="60" height="30" as="geometry" />
        </mxCell>
        <mxCell id="ixTr_KPI3cHfOdiQT1Z_-22" value="" style="rounded=0;whiteSpace=wrap;html=1;rotation=0;" vertex="1" parent="1">
          <mxGeometry x="80" y="320" width="100" height="60" as="geometry" />
        </mxCell>
        <mxCell id="ixTr_KPI3cHfOdiQT1Z_-23" value="" style="rounded=0;whiteSpace=wrap;html=1;rotation=0;" vertex="1" parent="1">
          <mxGeometry x="150" y="401" width="100" height="60" as="geometry" />
        </mxCell>
        <mxCell id="ixTr_KPI3cHfOdiQT1Z_-31" value="" style="endArrow=none;dashed=1;html=1;rounded=0;exitX=0;exitY=0;exitDx=0;exitDy=0;targetPerimeterSpacing=0;entryX=0.697;entryY=1.026;entryDx=0;entryDy=0;entryPerimeter=0;" edge="1" parent="1" source="ixTr_KPI3cHfOdiQT1Z_-23" target="ixTr_KPI3cHfOdiQT1Z_-22">
          <mxGeometry width="50" height="50" relative="1" as="geometry">
            <mxPoint x="150" y="400" as="sourcePoint" />
            <mxPoint x="150" y="390" as="targetPoint" />
          </mxGeometry>
        </mxCell>
        <mxCell id="ixTr_KPI3cHfOdiQT1Z_-32" value="" style="endArrow=none;dashed=1;html=1;rounded=0;exitX=0;exitY=0;exitDx=0;exitDy=0;targetPerimeterSpacing=0;entryX=0.697;entryY=1.026;entryDx=0;entryDy=0;entryPerimeter=0;" edge="1" parent="1">
          <mxGeometry width="50" height="50" relative="1" as="geometry">
            <mxPoint x="180" y="420" as="sourcePoint" />
            <mxPoint x="180" y="382" as="targetPoint" />
          </mxGeometry>
        </mxCell>
        <mxCell id="ixTr_KPI3cHfOdiQT1Z_-33" value="" style="rounded=0;whiteSpace=wrap;html=1;gradientColor=default;" vertex="1" parent="1">
          <mxGeometry x="150" y="320" width="30" height="60" as="geometry" />
        </mxCell>
        <mxCell id="ixTr_KPI3cHfOdiQT1Z_-36" value="" style="rounded=0;whiteSpace=wrap;html=1;gradientColor=default;" vertex="1" parent="1">
          <mxGeometry x="150" y="401" width="30" height="60" as="geometry" />
        </mxCell>
        <mxCell id="ixTr_KPI3cHfOdiQT1Z_-54" value="" style="rounded=0;whiteSpace=wrap;html=1;strokeColor=#b8ad75;" vertex="1" parent="1">
          <mxGeometry x="480" y="70" width="350" height="230" as="geometry" />
        </mxCell>
        <mxCell id="ixTr_KPI3cHfOdiQT1Z_-55" value="" style="rounded=0;whiteSpace=wrap;html=1;dashed=1;strokeWidth=3;" vertex="1" parent="1">
          <mxGeometry x="480" y="125" width="90" height="60" as="geometry" />
        </mxCell>
        <mxCell id="ixTr_KPI3cHfOdiQT1Z_-58" value="" style="rounded=0;whiteSpace=wrap;html=1;dashed=1;strokeWidth=3;fillColor=none;strokeColor=#7EA6E0;" vertex="1" parent="1">
          <mxGeometry x="480" y="165" width="90" height="60" as="geometry" />
        </mxCell>
        <mxCell id="ixTr_KPI3cHfOdiQT1Z_-59" value="" style="rounded=0;whiteSpace=wrap;html=1;dashed=1;strokeWidth=3;fillColor=none;strokeColor=#b8ad75;" vertex="1" parent="1">
          <mxGeometry x="550" y="125" width="90" height="60" as="geometry" />
        </mxCell>
        <mxCell id="ixTr_KPI3cHfOdiQT1Z_-60" value="(&lt;i&gt;i, j&lt;/i&gt;)" style="text;html=1;align=center;verticalAlign=middle;whiteSpace=wrap;rounded=0;" vertex="1" parent="1">
          <mxGeometry x="465" y="120" width="60" height="30" as="geometry" />
        </mxCell>
        <mxCell id="ixTr_KPI3cHfOdiQT1Z_-61" value="(&lt;i&gt;i, j + 1)&lt;/i&gt;" style="text;html=1;align=center;verticalAlign=middle;whiteSpace=wrap;rounded=0;" vertex="1" parent="1">
          <mxGeometry x="586" y="121" width="60" height="30" as="geometry" />
        </mxCell>
        <mxCell id="ixTr_KPI3cHfOdiQT1Z_-62" value="(&lt;i&gt;i + 1, j)&lt;/i&gt;" style="text;html=1;align=center;verticalAlign=middle;whiteSpace=wrap;rounded=0;" vertex="1" parent="1">
          <mxGeometry x="474" y="200" width="60" height="30" as="geometry" />
        </mxCell>
      </root>
    </mxGraphModel>
  </diagram>
</mxfile>
